<?xml version="1.0" encoding="UTF-8" standalone="no"?>
<svg
   width="16"
   height="16"
   version="1.1"
   id="svg2"
   sodipodi:docname="TorusMeshdfsdf.svg"
   xml:space="preserve"
   inkscape:version="1.4.2 (f4327f4, 2025-05-13)"
   xmlns:inkscape="http://www.inkscape.org/namespaces/inkscape"
   xmlns:sodipodi="http://sodipodi.sourceforge.net/DTD/sodipodi-0.dtd"
   xmlns:xlink="http://www.w3.org/1999/xlink"
   xmlns="http://www.w3.org/2000/svg"
   xmlns:svg="http://www.w3.org/2000/svg"><defs
     id="defs2"><inkscape:path-effect
       effect="powerclip"
       message=""
       id="path-effect66"
       is_visible="true"
       lpeversion="1"
       inverse="true"
       flatten="false"
       hide_clip="false" /><linearGradient
       id="linearGradient32"
       inkscape:collect="always"><stop
         style="stop-color:#389cff;stop-opacity:0.77777779;"
         offset="0.9010101"
         id="stop33" /><stop
         style="stop-color:#5fb2ff;stop-opacity:1;"
         offset="0.9010101"
         id="stop32" /></linearGradient><radialGradient
       inkscape:collect="always"
       xlink:href="#linearGradient32"
       id="radialGradient33"
       cx="8"
       cy="8.2987156"
       fx="7.9751477"
       fy="9.5794907"
       r="2"
       gradientTransform="matrix(1.2274748,0,0,0.62894546,-1.8197987,2.3246479)"
       gradientUnits="userSpaceOnUse" /><filter
       id="mask-powermask-path-effect59_inverse"
       inkscape:label="filtermask-powermask-path-effect59"
       style="color-interpolation-filters:sRGB"
       height="100"
       width="100"
       x="-50"
       y="-50"><feColorMatrix
         id="mask-powermask-path-effect59_primitive1"
         values="1"
         type="saturate"
         result="fbSourceGraphic" /><feColorMatrix
         id="mask-powermask-path-effect59_primitive2"
         values="-1 0 0 0 1 0 -1 0 0 1 0 0 -1 0 1 0 0 0 1 0 "
         in="fbSourceGraphic" /></filter><filter
       id="mask-powermask-path-effect61_inverse"
       inkscape:label="filtermask-powermask-path-effect61"
       style="color-interpolation-filters:sRGB"
       height="100"
       width="100"
       x="-50"
       y="-50"><feColorMatrix
         id="mask-powermask-path-effect61_primitive1"
         values="1"
         type="saturate"
         result="fbSourceGraphic" /><feColorMatrix
         id="mask-powermask-path-effect61_primitive2"
         values="-1 0 0 0 1 0 -1 0 0 1 0 0 -1 0 1 0 0 0 1 0 "
         in="fbSourceGraphic" /></filter><clipPath
       clipPathUnits="userSpaceOnUse"
       id="clipPath66"><ellipse
         style="display:none;fill:#ffffff;fill-opacity:1;fill-rule:evenodd;stroke:#000000;stroke-width:0;stroke-linejoin:round;stroke-dasharray:none;stroke-opacity:1;paint-order:stroke fill markers"
         id="ellipse66"
         cx="7.9999995"
         cy="7.7204614"
         rx="2.2712197"
         ry="0.83645558" /><path
         id="lpe_path-effect66"
         style="display:inline;fill:#ffffff;fill-opacity:1;fill-rule:evenodd;stroke:#000000;stroke-width:0;stroke-linejoin:round;stroke-dasharray:none;stroke-opacity:1;paint-order:stroke fill markers"
         class="powerclip"
         d="M -3.0358984,-1.4013895 H 19.035898 V 17.401389 H -3.0358984 Z M 10.271219,7.7204614 A 2.2712197,0.83645558 0 0 0 7.9999995,6.8840058 2.2712197,0.83645558 0 0 0 5.7287798,7.7204614 2.2712197,0.83645558 0 0 0 7.9999995,8.556917 2.2712197,0.83645558 0 0 0 10.271219,7.7204614 Z" /></clipPath></defs><sodipodi:namedview
     id="namedview2"
     pagecolor="#505050"
     bordercolor="#eeeeee"
     borderopacity="1"
     inkscape:showpageshadow="0"
     inkscape:pageopacity="0"
     inkscape:pagecheckerboard="0"
     inkscape:deskcolor="#505050"
     inkscape:zoom="45.254834"
     inkscape:cx="7.7229319"
     inkscape:cy="7.4356697"
     inkscape:window-width="1920"
     inkscape:window-height="1009"
     inkscape:window-x="1912"
     inkscape:window-y="-8"
     inkscape:window-maximized="1"
     inkscape:current-layer="g2" /><g
     fill="none"
     stroke="#ffca5f"
     id="g4"
     style="display:none"><path
       stroke-width="2"
       d="m 2.5,10 a 6,4 0 0 0 11,0 4,4 0 0 0 0,-4 6,4 0 0 0 -11,0 4,4 0 0 0 0,4 z"
       id="path3"
       style="stroke-width:1.93698;stroke-dasharray:none" /><path
       stroke-linecap="round"
       stroke-width="1.75"
       d="m 6.2,7.2 a 2,1 0 1 0 3.6,0"
       id="path4"
       style="stroke-width:1.69486;stroke-dasharray:none" /></g><g
     fill="none"
     stroke="#ffca5f"
     id="g2"
     transform="matrix(1.1887886,0,0,1.1887886,-1.5103084,-1.5103084)"
     style="display:inline"><g
       id="g51"
       style="display:inline"
       clip-path="url(#clipPath66)"
       inkscape:label="g51"
       sodipodi:insensitive="true"
       inkscape:path-effect="#path-effect66"><path
         stroke-width="2"
         d="m 2.5,10 a 6,4 0 0 0 11,0 4,4 0 0 0 0,-4 6,4 0 0 0 -11,0 4,4 0 0 0 0,4 z"
         id="path1"
         style="display:inline;fill:#5fb2ff;fill-opacity:1;fill-rule:evenodd;stroke:#000000;stroke-width:0;stroke-dasharray:none;stroke-opacity:1"
         inkscape:original-d="m 2.5,10 a 6,4 0 0 0 11,0 4,4 0 0 0 0,-4 6,4 0 0 0 -11,0 4,4 0 0 0 0,4 z" /><path
         stroke-linecap="round"
         stroke-width="1.75"
         d="m 5.7905454,6.0467132 a 2.4549499,1.7520716 0 1 0 4.4189096,0"
         id="path2"
         style="mix-blend-mode:normal;fill:url(#radialGradient33);fill-rule:evenodd;stroke:#000000;stroke-width:0;stroke-dasharray:none;stroke-opacity:1"
         inkscape:original-d="m 5.7905454,6.0467132 a 2.4549499,1.7520716 0 1 0 4.4189096,0" /><path
         style="display:inline;fill:#a2d2ff;fill-opacity:1;fill-rule:evenodd;stroke:#000000;stroke-width:0;stroke-linejoin:round;stroke-dasharray:none;stroke-opacity:1;paint-order:stroke fill markers"
         id="path33"
         transform="matrix(-0.93916387,0.34346943,0.6152784,0.78830989,0,0)"
         inkscape:transform-center-x="-0.037779145"
         inkscape:transform-center-y="0.17435537"
         sodipodi:type="arc"
         sodipodi:cx="-1.4116297"
         sodipodi:cy="7.2931619"
         sodipodi:rx="1.5045649"
         sodipodi:ry="0.5616889"
         d="M 0.0929352,7.2931619 A 1.5045649,0.5616889 -180 0 1 -1.4116297,7.8548508 1.5045649,0.5616889 -180 0 1 -2.9161946,7.2931619 1.5045649,0.5616889 -180 0 1 -1.4116297,6.731473 1.5045649,0.5616889 -180 0 1 0.0929352,7.2931619 Z" /></g></g></svg>
