<?xml version="1.0" encoding="UTF-8" standalone="no"?>
<svg
   width="16"
   height="16"
   version="1.1"
   id="svg1"
   sodipodi:docname="QuickAdd.svg"
   xml:space="preserve"
   inkscape:version="1.4.2 (f4327f4, 2025-05-13)"
   xmlns:inkscape="http://www.inkscape.org/namespaces/inkscape"
   xmlns:sodipodi="http://sodipodi.sourceforge.net/DTD/sodipodi-0.dtd"
   xmlns="http://www.w3.org/2000/svg"
   xmlns:svg="http://www.w3.org/2000/svg"><defs
     id="defs1" /><sodipodi:namedview
     id="namedview1"
     pagecolor="#505050"
     bordercolor="#eeeeee"
     borderopacity="1"
     inkscape:showpageshadow="0"
     inkscape:pageopacity="0"
     inkscape:pagecheckerboard="0"
     inkscape:deskcolor="#505050"
     inkscape:zoom="64"
     inkscape:cx="9.4375"
     inkscape:cy="8.6171875"
     inkscape:window-width="1920"
     inkscape:window-height="1009"
     inkscape:window-x="1912"
     inkscape:window-y="-8"
     inkscape:window-maximized="1"
     inkscape:current-layer="svg1" /><path
     fill="#e0e0e0"
     d="M1.553 4.104A1 1 0 0 0 1 5v6a1 1 0 0 0 .553.895l6 3a1 1 0 0 0 .894 0l6-3A1 1 0 0 0 15 11V5a1 1 0 0 0-.553-.894l-6-3a1 1 0 0 0-.894 0zm6.447-1 3.764 1.882L8 6.868 4.236 4.986zm-5 3.5 4 2v3.766l-4-2z"
     id="path1" /><path
     fill="#5fff97"
     d="M 4,2 V 4 H 2 V 6 H 4 V 8 H 6 V 6 H 8 V 4 H 6 V 2 Z"
     id="path2"
     style="fill:#14c400;fill-opacity:1"
     transform="translate(7.00,6.8)" /></svg>
